<svg width="32" height="31" viewBox="0 0 32 31" fill="none" xmlns="http://www.w3.org/2000/svg">
<path d="M19.9473 1.01562V12.0525" stroke="#FFC107" stroke-width="2" stroke-linecap="round" stroke-linejoin="round"/>
<path d="M10.4727 3.81055V26.2632" stroke="#FFC107" stroke-width="2" stroke-linecap="round" stroke-linejoin="round"/>
<path d="M29.4211 13.6314V5.1256C29.4211 4.44507 28.9869 3.84191 28.3411 3.62718L20.9453 1.16244C20.2979 0.946119 19.5969 0.946119 18.9479 1.16086L11.4716 3.65244C10.8227 3.86876 10.1232 3.86876 9.47423 3.65244L3.0779 1.52086C2.05632 1.1798 1 1.94086 1 3.01928V20.923C1 21.5214 1.3379 22.0677 1.87316 22.3362L9.06212 25.9299C9.95107 26.3751 10.9979 26.3751 11.8869 25.9299L13.6316 25.0567" stroke="#FFC107" stroke-width="2" stroke-linecap="round" stroke-linejoin="round"/>
<path d="M24.6849 16.7891C28.1728 16.7891 31.0007 19.617 31.0007 23.1049C31.0007 26.5928 28.1728 29.4207 24.6849 29.4207C21.197 29.4207 18.3691 26.5928 18.3691 23.1049C18.3691 19.617 21.197 16.7891 24.6849 16.7891Z" stroke="#FFC107" stroke-width="2" stroke-linecap="round" stroke-linejoin="round"/>
<path d="M27.1412 21.5703L24.0702 24.6414L22.2275 22.7987" stroke="#FFC107" stroke-width="2" stroke-linecap="round" stroke-linejoin="round"/>
</svg>
