<svg width="33" height="32" viewBox="0 0 33 32" fill="none" xmlns="http://www.w3.org/2000/svg">
<path d="M8.75 1H23.7567C27.895 1 31.25 4.355 31.25 8.49333V23.5083C31.25 27.645 27.895 31 23.7567 31H8.74333C4.605 31 1.25 27.645 1.25 23.5067V8.5C1.25 4.35833 4.60833 1 8.75 1V1Z" stroke="#FFC107" stroke-width="2" stroke-linecap="round" stroke-linejoin="round"/>
<path d="M12.3348 19.9106C15.9731 23.5506 20.5831 25.8706 23.3248 23.1406L23.9898 22.4756C24.8764 21.5906 24.7531 20.1239 23.7231 19.4089C23.0748 18.9572 22.3781 18.4722 21.6081 17.9306C20.8114 17.3706 19.7198 17.4589 19.0281 18.1439L18.2764 18.8906C17.3448 18.3006 16.4231 17.5422 15.5664 16.6872L15.5631 16.6839C14.7081 15.8289 13.9498 14.9056 13.3598 13.9739L14.1064 13.2222C14.7931 12.5322 14.8781 11.4389 14.3198 10.6422C13.7764 9.87222 13.2914 9.17555 12.8414 8.52722C12.1264 7.49888 10.6598 7.37555 9.77478 8.26055L9.10978 8.92555C6.38145 11.6672 8.69978 16.2739 12.3381 19.9156" stroke="#FFC107" stroke-width="2" stroke-linecap="round" stroke-linejoin="round"/>
</svg>
